<svg width="80" height="80" viewBox="0 0 80 80" fill="none" xmlns="http://www.w3.org/2000/svg">
  <circle cx="40" cy="40" r="40" fill="#FEF3C7"/>
  <!-- Corn stalk -->
  <path d="M40 20 L40 60" stroke="#92400E" stroke-width="3" stroke-linecap="round"/>
  <!-- Corn cob -->
  <ellipse cx="40" cy="25" rx="8" ry="4" fill="#F59E0B" stroke="#D97706" stroke-width="1"/>
  <!-- Corn kernels -->
  <circle cx="36" cy="24" r="1" fill="#FEF3C7"/>
  <circle cx="44" cy="24" r="1" fill="#FEF3C7"/>
  <circle cx="38" cy="26" r="1" fill="#FEF3C7"/>
  <circle cx="42" cy="26" r="1" fill="#FEF3C7"/>
  <circle cx="40" cy="28" r="1" fill="#FEF3C7"/>
  <!-- Corn leaves -->
  <path d="M35 30 Q30 25 35 20" stroke="#16A34A" stroke-width="2" fill="none"/>
  <path d="M45 30 Q50 25 45 20" stroke="#16A34A" stroke-width="2" fill="none"/>
  <path d="M35 40 Q30 35 35 30" stroke="#16A34A" stroke-width="2" fill="none"/>
  <path d="M45 40 Q50 35 45 30" stroke="#16A34A" stroke-width="2" fill="none"/>
  <path d="M35 50 Q30 45 35 40" stroke="#16A34A" stroke-width="2" fill="none"/>
  <path d="M45 50 Q50 45 45 40" stroke="#16A34A" stroke-width="2" fill="none"/>
</svg>
