<svg width="100" height="100" viewBox="0 0 100 100" xmlns="http://www.w3.org/2000/svg">
  <!-- Background circle -->
  <circle cx="50" cy="50" r="45" fill="#4ade80" stroke="#22c55e" stroke-width="2"/>
  
  <!-- Stem -->
  <rect x="48" y="70" width="4" height="20" fill="#166534"/>
  
  <!-- Leaves -->
  <ellipse cx="35" cy="80" rx="6" ry="3" fill="#16a34a" transform="rotate(-15 35 80)"/>
  <ellipse cx="65" cy="80" rx="6" ry="3" fill="#16a34a" transform="rotate(15 65 80)"/>
  
  <!-- Main flower head -->
  <circle cx="50" cy="55" r="12" fill="#f59e0b"/>
  
  <!-- Flower petals -->
  <ellipse cx="50" cy="43" rx="3" ry="8" fill="#fbbf24" transform="rotate(0 50 43)"/>
  <ellipse cx="50" cy="67" rx="3" ry="8" fill="#fbbf24" transform="rotate(0 50 67)"/>
  <ellipse cx="43" cy="50" rx="8" ry="3" fill="#fbbf24" transform="rotate(0 43 50)"/>
  <ellipse cx="57" cy="50" rx="8" ry="3" fill="#fbbf24" transform="rotate(0 57 50)"/>
  
  <!-- Diagonal petals -->
  <ellipse cx="43" cy="43" rx="3" ry="8" fill="#fbbf24" transform="rotate(-45 43 43)"/>
  <ellipse cx="57" cy="43" rx="3" ry="8" fill="#fbbf24" transform="rotate(45 57 43)"/>
  <ellipse cx="43" cy="67" rx="3" ry="8" fill="#fbbf24" transform="rotate(45 43 67)"/>
  <ellipse cx="57" cy="67" rx="3" ry="8" fill="#fbbf24" transform="rotate(-45 57 67)"/>
  
  <!-- Flower center -->
  <circle cx="50" cy="55" r="4" fill="#92400e"/>
  
  <!-- Small flowers on sides -->
  <circle cx="35" cy="60" r="6" fill="#f59e0b"/>
  <circle cx="65" cy="60" r="6" fill="#f59e0b"/>
  <circle cx="35" cy="60" r="2" fill="#92400e"/>
  <circle cx="65" cy="60" r="2" fill="#92400e"/>
</svg>
