<svg width="80" height="80" viewBox="0 0 80 80" fill="none" xmlns="http://www.w3.org/2000/svg">
  <circle cx="40" cy="40" r="40" fill="#E0F2FE"/>
  <!-- Rice plant -->
  <path d="M40 20 L40 60" stroke="#0F766E" stroke-width="2" stroke-linecap="round"/>
  <!-- Rice grains -->
  <circle cx="38" cy="18" r="1.5" fill="#FEF3C7"/>
  <circle cx="42" cy="18" r="1.5" fill="#FEF3C7"/>
  <circle cx="36" cy="20" r="1.5" fill="#FEF3C7"/>
  <circle cx="44" cy="20" r="1.5" fill="#FEF3C7"/>
  <circle cx="37" cy="22" r="1.5" fill="#FEF3C7"/>
  <circle cx="43" cy="22" r="1.5" fill="#FEF3C7"/>
  <!-- Rice leaves -->
  <path d="M35 25 Q30 20 35 15" stroke="#16A34A" stroke-width="1.5" fill="none"/>
  <path d="M45 25 Q50 20 45 15" stroke="#16A34A" stroke-width="1.5" fill="none"/>
  <path d="M35 35 Q30 30 35 25" stroke="#16A34A" stroke-width="1.5" fill="none"/>
  <path d="M45 35 Q50 30 45 25" stroke="#16A34A" stroke-width="1.5" fill="none"/>
  <path d="M35 45 Q30 40 35 35" stroke="#16A34A" stroke-width="1.5" fill="none"/>
  <path d="M45 45 Q50 40 45 35" stroke="#16A34A" stroke-width="1.5" fill="none"/>
</svg>
