<svg width="100" height="100" viewBox="0 0 100 100" xmlns="http://www.w3.org/2000/svg">
  <!-- Background circle -->
  <circle cx="50" cy="50" r="45" fill="#4ade80" stroke="#22c55e" stroke-width="2"/>
  
  <!-- Stem with thorns -->
  <rect x="48" y="70" width="4" height="20" fill="#166534"/>
  <rect x="45" y="75" width="2" height="3" fill="#166534" transform="rotate(-45 45 75)"/>
  <rect x="55" y="78" width="2" height="3" fill="#166534" transform="rotate(45 55 78)"/>
  
  <!-- Leaves -->
  <ellipse cx="35" cy="80" rx="6" ry="3" fill="#16a34a" transform="rotate(-15 35 80)"/>
  <ellipse cx="65" cy="80" rx="6" ry="3" fill="#16a34a" transform="rotate(15 65 80)"/>
  
  <!-- Rose flower - layered petals -->
  <!-- Outer petals -->
  <ellipse cx="50" cy="55" rx="15" ry="12" fill="#fecaca"/>
  <ellipse cx="50" cy="55" rx="12" ry="10" fill="#fca5a5"/>
  <ellipse cx="50" cy="55" rx="9" ry="8" fill="#f87171"/>
  <ellipse cx="50" cy="55" rx="6" ry="6" fill="#ef4444"/>
  
  <!-- Inner petals -->
  <ellipse cx="50" cy="55" rx="4" ry="4" fill="#dc2626"/>
  <ellipse cx="50" cy="55" rx="2" ry="2" fill="#991b1b"/>
  
  <!-- Petal details -->
  <ellipse cx="35" cy="50" rx="4" ry="8" fill="#fecaca" transform="rotate(-20 35 50)"/>
  <ellipse cx="65" cy="50" rx="4" ry="8" fill="#fecaca" transform="rotate(20 65 50)"/>
  <ellipse cx="45" cy="45" rx="3" ry="6" fill="#fca5a5" transform="rotate(-10 45 45)"/>
  <ellipse cx="55" cy="45" rx="3" ry="6" fill="#fca5a5" transform="rotate(10 55 45)"/>
  
  <!-- Flower center -->
  <circle cx="50" cy="55" r="3" fill="#7c2d12"/>
</svg>
